<svg width="16" height="16" viewBox="0 0 16 16" fill="none" xmlns="http://www.w3.org/2000/svg">
<path fill-rule="evenodd" clip-rule="evenodd" d="M2.22566 0.811445C1.83514 0.420925 1.20197 0.420925 0.811452 0.811445C0.420922 1.20196 0.420922 1.83513 0.811452 2.22565L6.5862 8.00038L0.811512 13.7751C0.420982 14.1656 0.420982 14.7988 0.811512 15.1893C1.20203 15.5798 1.8352 15.5798 2.22572 15.1893L8.0004 9.41459L13.7751 15.1893C14.1656 15.5798 14.7988 15.5798 15.1893 15.1893C15.5798 14.7988 15.5798 14.1656 15.1893 13.7751L9.4146 8.00038L15.1893 2.22565C15.5799 1.83513 15.5799 1.20196 15.1893 0.811445C14.7988 0.420925 14.1657 0.420925 13.7751 0.811445L8.0004 6.58618L2.22566 0.811445Z" fill="#8F92A1" fill-opacity="0.4"/>
</svg>
